<svg xmlns="http://www.w3.org/2000/svg" width="20" height="20" fill="none"><path stroke="#fff" stroke-linecap="round" stroke-linejoin="round" stroke-width="1.667" d="m17.5 15-.833.911a2.26 2.26 0 0 1-1.667.755 2.26 2.26 0 0 1-1.666-.755 2.264 2.264 0 0 0-1.667-.753c-.625 0-1.224.27-1.667.753m-7.5.755h1.395c.408 0 .612 0 .804-.046.17-.04.332-.108.482-.2.168-.103.312-.247.6-.535L16.25 5.416a1.768 1.768 0 1 0-2.5-2.5L3.281 13.386c-.288.287-.432.432-.535.6-.092.149-.16.311-.2.481-.046.192-.046.396-.046.804v1.395z"/></svg>